<?xml version="1.0" encoding="UTF-8" standalone="no"?>
<svg
   width="100%"
   height="100%"
   viewBox="0 0 10000 10000"
   version="1.1"
   xml:space="preserve"
   style="fill-rule:evenodd;clip-rule:evenodd;stroke-linecap:round;stroke-linejoin:round;stroke-miterlimit:1.5;"
   id="svg1001"
   sodipodi:docname="example-gear.svg"
   inkscape:version="1.2.2 (732a01da63, 2022-12-09)"
   xmlns:inkscape="http://www.inkscape.org/namespaces/inkscape"
   xmlns:sodipodi="http://sodipodi.sourceforge.net/DTD/sodipodi-0.dtd"
   xmlns="http://www.w3.org/2000/svg"
   xmlns:svg="http://www.w3.org/2000/svg"><defs
   id="defs1005" /><sodipodi:namedview
   id="namedview1003"
   pagecolor="#505050"
   bordercolor="#eeeeee"
   borderopacity="1"
   inkscape:showpageshadow="0"
   inkscape:pageopacity="0"
   inkscape:pagecheckerboard="0"
   inkscape:deskcolor="#505050"
   showgrid="false"
   inkscape:zoom="0.0413"
   inkscape:cx="-1271.1864"
   inkscape:cy="5750.6053"
   inkscape:window-width="1920"
   inkscape:window-height="1013"
   inkscape:window-x="-9"
   inkscape:window-y="-9"
   inkscape:window-maximized="1"
   inkscape:current-layer="svg1001" />
    <g
   id="Edge.Cuts">
        <path
   id="path738"
   style="fill-rule:evenodd;clip-rule:evenodd;stroke-linecap:round;stroke-linejoin:round;stroke-miterlimit:1.5;display:inline;fill:#ff0000;stroke-width:1.33866;image-rendering:optimizeQuality;shape-rendering:geometricPrecision;text-rendering:geometricPrecision"
   d="m 5951.7602,162.64402 c -155.9818,0.35742 -311.4708,29.32069 -463.5413,82.89258 -486.6253,171.43297 -938.7801,592.64004 -1269.3112,1130.0884 l -0.013,0.013 -0.013,0.013 c -37.2453,60.9184 -124.5782,135.1847 -239.9472,227.4265 -115.3691,92.2404 -258.71,203.2355 -408.645,341.8365 -299.8697,277.2033 -626.2638,665.1526 -809.196,1235.4705 v -0.027 c -43.9539,136.19 -82.6028,218.0171 -117.8844,270.1579 -35.2816,52.1409 -66.6601,74.8124 -99.656,94.6273 -32.9961,19.8135 -68.435,36.6137 -106.1933,74.5259 -37.7583,37.9109 -77.3402,96.3515 -121.599,199.3976 -76.4146,177.4008 -92.2918,414.1591 -49.7345,648.3926 42.5582,234.2403 143.7358,466.1112 304.0622,632.5523 119.7295,124.3348 153.8923,243.2789 215.3228,405.5835 61.4309,162.3047 149.7488,366.0864 376.8384,653.6442 71.0232,90.1414 194.0522,199.5047 310.0459,301.773 111.2536,98.0891 216.2628,190.4099 259.7563,247.3565 -263.7712,400.0924 -398.3303,701.247 -451.9816,939.4992 -54.0097,239.8439 -25.5979,416.254 34.7549,562.8495 60.3526,146.5954 151.8254,263.3776 223.377,386.5143 71.5516,123.1368 123.6003,251.8611 108.4885,425.3195 -17.8081,201.613 -10.1636,327.0376 12.4774,409.5218 22.6417,82.487 61.867,122.098 102.2936,146.8806 40.4268,24.784 79.9067,36.1733 108.9682,65.2732 29.0618,29.0998 51.0141,77.0627 53.3157,180.3016 l 0.2926,13.088 h 3049.0545 l -93.3395,-1081.4053 c 106.5092,27.0048 142.637,48.576 189.1341,64.7845 49.1583,17.1362 107.9148,26.6795 267.0589,27.3516 333.4417,2.0173 516.1623,-78.0038 637.2683,-226.8215 121.1087,-148.8203 180.7514,-362.7879 277.6276,-629.3662 128.4057,-354.7679 346.2032,-434.3487 538.7723,-565.2617 96.2846,-65.4579 185.8878,-143.9275 250.5331,-274.6464 64.6453,-130.7176 104.3821,-312.9268 104.3821,-586.3069 v -12.2916 l -12.246,-1.0454 c -255.5759,-21.8336 -221.1884,-34.7504 -453.604,83.1911 49.7674,-195.3362 145.5593,-456.4152 155.6033,-679.1778 5.2676,-116.8196 -13.1952,-224.0732 -76.6866,-304.8266 -63.4913,-80.752 -171.1318,-132.8621 -337.8874,-142.0319 l -4.8808,-0.2704 -3.9049,2.9423 c -52.2975,39.3781 -98.2376,83.4374 -140.3907,128.4031 -42.1545,44.9656 -80.5245,90.8348 -117.6817,133.83 1.3306,-140.5929 8.7816,-280.8083 -12.8445,-407.8995 -22.8817,-134.4739 -79.9502,-254.7619 -211.0011,-340.791 43.4985,-86.3102 96.8642,-275.8365 140.5822,-468.0682 22.8134,-100.3126 42.6926,-200.8568 56.3081,-286.5873 13.6168,-85.7319 21.12,-156.0665 18.6301,-198.743 l -0.3668,-6.3065 -218.6007,-159.5911 c -16.6114,-155.1187 -56.8596,-329.0697 -59.4526,-457.4072 v -0.04 -0.04 c -3.3078,-125.6775 15.8498,-182.505 30.7477,-243.4489 14.894,-60.9319 24.8402,-125.3295 1.1874,-256.4835 l -0.013,-0.067 C 7819.8794,2501.66 7803.2224,2139.8399 7696.7253,1778.7936 7590.2227,1417.7286 7393.5038,1058.464 6957.2983,618.23058 6640.4854,299.56496 6294.9319,161.89705 5951.7721,162.68016 Z" />
    </g>
    <g
   id="F.Cu">
        <path
   class="fil3"
   d="m 3773.8255,9326.2538 c 192.7672,8.032 159.3006,-8.0319 153.946,161.978 -172.6873,-26.7732 -99.0609,14.7253 -153.946,-161.978 z m -5.3547,-290.4895 c 175.3646,57.5625 137.8821,37.4826 153.9461,175.3647 -129.8502,-18.7413 -141.8981,-4.016 -153.9461,-175.3647 z m 107.0929,-293.1668 c 149.9301,96.3836 135.2048,81.6584 93.7063,259.7003 -152.6074,-77.6423 -196.7832,-103.0769 -93.7063,-259.7003 z m 535.4645,-946.4334 c -108.4316,104.4155 -76.3037,107.0929 -216.8631,111.1088 -364.1159,-378.8411 329.3106,-833.9859 216.8631,-111.1088 z m -202.1378,-562.2377 c 799.1807,-88.3517 386.873,1329.2905 -82.997,804.5353 l 263.7162,-13.3866 c 443.0969,-597.0429 -88.3516,-726.893 -180.7192,-791.1487 z m 92.3676,-295.8442 297.1828,66.9331 571.6083,41.4985 657.2826,-107.0929 8.032,180.7193 c 214.1858,614.4455 309.2307,755.0049 661.2986,1279.7601 -484.5953,-143.2368 -310.5694,-269.0709 -530.1098,-579.6403 -2.6773,4.016 -144.5754,9.3706 -9.3706,313.2467 179.3806,406.953 542.1578,340.0199 720.1997,473.8861 l 61.5784,619.8001 65.5944,583.6563 -2736.2235,1.3386 10.7093,-495.3046 21.4186,-702.7971 25.4346,-337.3427 c 151.2687,-99.0609 433.7262,139.2208 605.0748,-350.7292 117.8022,-331.988 9.3706,-539.4805 -186.0739,-780.4395 l -226.2337,-49.5304 -191.4286,46.8531 4.016,-250.3296 z m -321.2787,382.8571 -85.6743,231.5884 -17.4026,242.2977 -123.1569,76.3037 c 187.4126,18.7413 210.1699,57.5624 226.2338,254.3456 13.3866,152.6074 12.0479,370.8092 -44.1758,477.9021 l -184.7353,103.0769 c -327.972,-540.8191 -493.966,-1085.6543 -70.949,-1629.1507 l 64.2557,-88.3516 c 65.5944,-165.994 73.6264,-174.026 238.2817,-191.4286 l 18.7413,178.042 z m 2622.4373,-302.5374 -26.7732,-356.0839 230.2497,-89.6903 c 74.965,232.9271 80.3197,444.4355 -203.4765,445.7742 z m 2056.1836,-357.4225 -12.048,42.8371 -34.8052,-26.7732 z m -1361.4185,1930.3494 515.3846,-61.5784 c -143.2367,168.6713 -318.6014,186.0739 -542.1578,160.6393 -235.6044,-29.4505 -309.2307,-49.5304 -480.5794,-212.8471 87.013,-13.3866 65.5944,17.4026 175.3647,-60.2397 -174.026,-140.5595 -898.2417,-410.969 -1002.6573,-1377.4824 -12.0479,-119.1409 -2.6773,-234.2657 -28.1119,-352.0679 -45.5144,-214.1858 -111.1088,-149.9301 -29.4505,-331.988 465.8541,-164.6553 746.9729,510.0299 433.7262,828.6313 349.3906,-41.4985 730.909,152.6074 1026.7532,319.94 -135.2048,-222.2177 -378.8412,-262.3776 -579.6403,-370.8091 378.8411,-456.4835 50.8691,-133.8661 207.4924,-934.3855 -144.5754,136.5434 -254.3456,279.7801 -457.8221,318.6013 l -210.1698,-226.2337 c 500.6593,-724.2157 922.3376,-597.0429 1066.913,-65.5944 69.6104,254.3456 -22.7573,148.5914 132.5274,198.1218 93.7063,-345.3746 -36.1438,-1049.5103 330.6494,-1242.2776 389.5504,309.2308 -60.2398,1132.5074 95.0449,1439.0608 187.4126,-144.5754 246.3137,-1029.4304 617.1228,-915.6442 398.9211,353.4065 -342.6972,1145.894 -239.6203,1384.1757 182.0579,62.917 306.5534,-384.1958 697.4425,-377.5025 30.7892,436.4035 -550.1898,672.0079 -816.5834,1010.6892 -133.8661,170.01 -202.1378,432.3876 -323.956,572.947 -228.9111,265.0549 -534.1258,92.3676 -718.8611,212.8471 z m 124.4955,-2688.0317 c -91.0289,-69.6104 -164.6553,-76.3037 48.1918,-319.94 z M 3413.7256,3914.0466 c 638.5414,685.3945 -34.8052,1886.1736 -653.2667,1136.5233 -322.6173,-238.2816 -443.0968,-760.3595 -299.8601,-1139.2006 179.3806,-473.8861 759.0209,-400.2597 953.1268,2.6773 z m 398.921,232.927 c 236.9431,-677.3625 180.7193,-1029.4304 619.8002,-1712.1476 270.4095,-423.017 852.7272,-1024.0759 1439.0608,-975.8841 485.934,41.4985 1091.0088,720.1998 1295.824,1120.4595 465.8541,908.9509 215.5245,1115.1047 476.5634,1319.9199 112.4475,88.3517 228.9111,144.5754 327.972,259.7003 l -151.2687,756.3436 c -831.3086,476.5634 -203.4765,-175.3647 -686.7332,744.2956 -650.5894,6.6933 -527.4325,199.4605 -949.1108,556.8831 -669.3306,-61.5785 -372.1478,325.2946 -370.8092,576.9629 C 4630.5686,7209.8305 3233.0063,6543.1772 2901.0184,5338.3821 4149.9893,5679.7407 4056.283,3618.2025 2856.8425,3450.8698 2923.7756,2934.1466 3610.5088,1948.8919 4057.6216,1770.85 c -227.5724,864.7751 -432.3875,1413.6262 -244.975,2376.1236 z m 3847.3123,-365.4545 c -101.7382,-503.3366 -129.8501,-835.3246 -398.921,-1295.824 -132.5275,-228.9111 -535.4645,-773.7462 -752.3276,-848.7112 693.4265,423.0169 1026.7531,987.932 1191.4085,1777.7421 92.3676,441.7582 8.0319,318.6013 -40.1599,366.7931 z M 3874.2251,3244.716 c 30.7892,-716.1838 224.895,-1425.6742 627.8321,-2016.0238 321.2786,-469.87006 997.3025,-1054.86501 1650.5692,-850.04984 155.2847,257.02295 105.7543,670.66924 53.5465,962.49744 -690.7492,10.7093 -1044.1558,68.2717 -1530.0898,582.3176 -551.5284,584.9949 -595.7042,1068.2516 -801.858,1321.2586 z M 6325.3137,1401.3795 c 45.5145,-364.1158 68.2717,-603.73619 -8.032,-966.51337 887.5324,105.75423 1424.3356,1696.08377 1405.5943,2504.63507 -37.4825,-46.8531 -235.6044,-514.0459 -536.8031,-943.7561 -192.7673,-277.1029 -506.014,-497.982 -860.7592,-594.3656 z m 2333.2865,5259.5999 c 95.0449,-398.9211 417.6623,-1101.7182 -239.6204,-1137.8621 -113.7862,85.6744 -198.1218,195.4446 -279.7802,287.8122 0,-306.5534 42.8372,-611.7682 -227.5724,-780.4395 84.3357,-152.6073 228.9111,-796.5034 219.5405,-957.1427 l -218.2018,-159.3007 c -16.0639,-155.2847 -57.5624,-331.988 -60.2398,-464.5154 -6.6933,-254.3457 78.981,-238.2817 32.1279,-497.982 -156.6234,-896.903 -66.9331,-1445.7541 -937.0628,-2323.91586 -915.6443,-920.9989 -2058.861,-315.92404 -2717.4823,755.00496 -157.962,258.3616 -1092.3475,666.6532 -1456.4634,1801.8379 -176.7032,547.5125 -270.4095,231.5884 -445.7741,639.8801 -149.9301,348.0519 -64.2558,938.4015 251.6683,1266.3735 243.6363,253.0069 140.5594,487.2727 593.0269,1060.2197 139.2207,176.7032 491.2886,437.7422 575.6243,556.883 -1066.913,1613.0868 -26.7732,1609.0708 -88.3516,2315.8839 -70.9491,803.1967 267.7322,380.1798 277.1028,800.5194 h 3021.3584 l -93.7063,-1085.6542 c 244.975,58.901 153.946,95.0449 471.2087,96.3836 662.6373,4.0159 708.1518,-313.2468 902.2577,-847.3726 259.7002,-717.5224 892.887,-333.3266 892.887,-1421.6582 -266.3936,-22.7572 -207.4925,-38.8212 -472.5474,95.045 z"
   id="path769"
   style="fill-rule:evenodd;clip-rule:evenodd;stroke-linecap:round;stroke-linejoin:round;stroke-miterlimit:1.5;fill:#800000;stroke-width:1.33866;image-rendering:optimizeQuality;shape-rendering:geometricPrecision;text-rendering:geometricPrecision" /><path
   class="fil3"
   d="m 4966.5726,5334.3661 c -566.2537,-210.1698 -465.8541,-904.935 -135.2048,-1321.2586 291.8282,-366.7932 1086.9929,-639.88 1504.6552,-282.4575 566.2537,267.7322 346.7133,969.1907 36.1439,1352.0478 -269.0709,331.988 -1054.8651,590.3496 -1405.5943,251.6683 z m 597.0429,-1874.1257 c -1524.7351,273.0869 -1472.5273,2444.3954 139.2208,2137.842 1475.2046,-281.1189 1480.5592,-2426.9928 -139.2208,-2137.842 z"
   id="path766"
   style="fill-rule:evenodd;clip-rule:evenodd;stroke-linecap:round;stroke-linejoin:round;stroke-miterlimit:1.5;fill:#800000;stroke-width:1.33866;image-rendering:optimizeQuality;shape-rendering:geometricPrecision;text-rendering:geometricPrecision" /><path
   class="fil3"
   d="m 4172.7465,6370.4899 c -108.4316,-89.6903 -287.8122,-779.1008 -246.3137,-900.919 448.4515,-219.5404 469.8701,682.7172 246.3137,900.919 z m 219.5404,-278.4415 c 28.1119,-428.3716 -127.1728,-338.6813 60.2398,-457.8222 -156.6234,-141.8981 -208.8312,-242.2976 -431.0489,-323.956 l -202.1379,145.9141 c 92.3677,270.4096 82.997,829.9699 301.1988,1025.4145 211.5085,-53.5465 257.023,-165.994 271.7482,-389.5504 z"
   id="path763"
   style="fill-rule:evenodd;clip-rule:evenodd;stroke-linecap:round;stroke-linejoin:round;stroke-miterlimit:1.5;fill:#800000;stroke-width:1.33866;image-rendering:optimizeQuality;shape-rendering:geometricPrecision;text-rendering:geometricPrecision" /><path
   class="fil3"
   d="m 7720.1987,4816.3042 c 91.0289,-132.5274 204.8151,-452.4674 172.6873,-635.864 l -164.6554,-8.032 z"
   id="path760"
   style="fill-rule:evenodd;clip-rule:evenodd;stroke-linecap:round;stroke-linejoin:round;stroke-miterlimit:1.5;fill:#800000;stroke-width:1.33866;image-rendering:optimizeQuality;shape-rendering:geometricPrecision;text-rendering:geometricPrecision" /><path
   class="fil0"
   d="m 4449.8494,6482.9374 c -58.9011,66.9331 -46.8532,72.2877 -131.1888,121.8182 l -184.7353,123.1568 262.3776,-42.8371 z"
   id="path757"
   style="fill-rule:evenodd;clip-rule:evenodd;stroke-linecap:round;stroke-linejoin:round;stroke-miterlimit:1.5;display:inline;fill:#800000;stroke-width:1.33866;image-rendering:optimizeQuality;shape-rendering:geometricPrecision;text-rendering:geometricPrecision" /><path
   class="fil0"
   d="m 3997.3819,6513.7266 c 89.6903,88.3517 -121.8182,21.4186 100.3996,92.3677 z"
   id="path754"
   style="fill-rule:evenodd;clip-rule:evenodd;stroke-linecap:round;stroke-linejoin:round;stroke-miterlimit:1.5;display:inline;fill:#800000;stroke-width:1.33866;image-rendering:optimizeQuality;shape-rendering:geometricPrecision;text-rendering:geometricPrecision" />
    </g>
    <g
   id="F.Mask"
   transform="matrix(1.1440129,0,0,0.99985729,-792.70399,-23.499526)">
        <path
   id="path846"
   class="fil1"
   d="m 5753.3342,3566.2175 c -360.5762,24.9808 -739.602,217.6396 -921.9944,446.8839 -330.6492,416.3235 -431.0117,1111.1167 135.2415,1321.2851 350.7284,338.6814 1136.541,80.3212 1405.6118,-251.6654 310.5696,-382.8585 530.0737,-1084.337 -36.1799,-1352.0693 -156.6234,-134.0333 -366.3339,-179.4232 -582.679,-164.4343 z"
   style="fill-rule:evenodd;clip-rule:evenodd;stroke-linecap:round;stroke-linejoin:round;stroke-miterlimit:1.5;fill:#ffff9e;stroke-width:1.33867;image-rendering:optimizeQuality;shape-rendering:geometricPrecision;text-rendering:geometricPrecision"
   transform="matrix(0.87411602,0,0,1.0001427,692.91525,23.50288)" /><path
   id="path843"
   class="fil1"
   d="m 2931.6638,3583.9265 c -191.5956,-9.5312 -381.4067,90.4721 -471.0969,327.4165 -143.2366,378.8409 -22.7339,900.9284 299.8834,1139.2087 618.4608,749.6514 1291.7814,-451.1168 653.2406,-1136.5113 -97.053,-201.4684 -290.4313,-320.5771 -482.0271,-330.1139 z"
   style="fill-rule:evenodd;clip-rule:evenodd;stroke-linecap:round;stroke-linejoin:round;stroke-miterlimit:1.5;fill:#ffff9e;stroke-width:1.33867;image-rendering:optimizeQuality;shape-rendering:geometricPrecision;text-rendering:geometricPrecision"
   transform="matrix(0.87411602,0,0,1.0001427,692.91525,23.50288)" />
    </g>
    <g
   id="F.SilkS">
        <path
   class="fil4"
   d="m 4396.3029,6685.073 -262.3776,42.8372 184.7352,-123.1555 c 84.3357,-49.5304 72.2877,-54.8864 131.1888,-121.8195 z m -398.921,-171.3472 100.3996,92.3676 c -222.2178,-70.9504 -10.7093,-4.016 -100.3996,-92.3676 z M 3819.34,5456.1822 4021.4778,5310.2681 c 222.2177,81.6597 274.4255,182.0592 431.0489,323.9573 -187.4126,119.1395 -32.1279,29.4506 -60.2398,457.8208 -14.7253,223.5577 -60.2397,336.0053 -271.7482,389.5504 C 3902.3369,6286.1534 3911.7076,5726.593 3819.34,5456.1822 Z M 5563.6159,3460.2398 C 7183.3958,3171.089 7178.0412,5316.9627 5702.8367,5598.0802 4091.0882,5904.6336 4038.8804,3733.3253 5563.6159,3460.2398 Z m 2164.615,712.1664 164.6553,8.0319 c 32.1279,183.3979 -81.6583,503.3379 -172.6873,635.8641 z m -3915.5843,-25.4346 c -187.4125,-962.4973 17.4026,-1511.347 244.975,-2376.1228 -447.1128,178.0419 -1133.8459,1163.2958 -1200.779,1680.0204 1199.4404,167.3326 1293.1466,2228.8707 44.1758,1887.5121 331.988,1204.7937 1729.5502,1871.4469 2912.9271,1455.1233 -1.3386,-251.6683 -298.5214,-638.5413 370.8092,-576.9616 421.6782,-357.4225 298.5214,-550.1911 949.1107,-556.883 483.2566,-919.6602 -144.5754,-267.7322 686.7331,-744.2956 l 151.2687,-756.3448 c -99.0609,-115.1236 -215.5244,-171.3487 -327.9719,-259.699 -261.039,-204.8151 -10.7093,-410.9689 -476.5634,-1319.9205 -204.8151,-400.2596 -809.89,-1078.9608 -1295.8239,-1120.4593 -586.3336,-48.1918 -1168.6517,552.867 -1439.0613,975.8839 -439.0808,682.7165 -382.857,1034.7844 -619.8001,1712.1469 z"
   id="path835"
   style="fill-rule:evenodd;clip-rule:evenodd;stroke-linecap:round;stroke-linejoin:round;stroke-miterlimit:1.5;fill:#ffffff;stroke-width:1.33866;image-rendering:optimizeQuality;shape-rendering:geometricPrecision;text-rendering:geometricPrecision" /><path
   class="fil4"
   d="m 7270.4088,8690.3874 26.7732,-99.0609 -131.1888,-82.997 c 184.7353,-120.4782 489.95,52.2077 718.861,-212.8458 121.8182,-140.5608 190.0899,-402.937 323.956,-572.9483 266.3936,-338.6799 847.3725,-574.2843 816.5833,-1010.6891 -390.889,-6.6933 -515.3845,440.4195 -697.4424,377.5037 -103.0769,-238.283 638.5413,-1030.7703 239.6203,-1384.1755 -370.8091,-113.7862 -429.7102,771.0674 -617.1228,915.6442 -155.2846,-306.5548 294.5055,-1129.83 -95.0449,-1439.0607 -366.7931,192.7672 -236.943,896.9029 -330.6493,1242.2761 -155.2847,-49.5304 -62.9171,56.2251 -132.5274,-198.1218 -144.5754,-531.4485 -566.2537,-658.6199 -1066.9129,65.5957 l 210.1698,226.2324 c 203.4764,-38.8198 313.2467,-182.0579 457.8221,-318.6 -156.6234,800.518 171.3486,477.9007 -207.4925,934.3841 200.7992,108.4329 444.4355,148.5927 579.6402,370.8091 -295.8441,-167.3326 -677.3625,-361.4385 -1026.753,-319.94 313.2467,-318.6013 32.1278,-993.2852 -433.7262,-828.6312 -81.6583,182.0593 -16.064,117.8022 29.4505,331.9893 25.4346,117.8022 16.064,232.9257 28.1119,352.0679 104.4156,966.512 828.6312,1236.9215 1002.6572,1377.4809 -109.7702,77.6437 -88.3517,46.8531 -175.3646,60.2398 171.3486,163.3166 244.975,183.3965 480.5793,212.8471 z"
   id="path832"
   style="fill-rule:evenodd;clip-rule:evenodd;stroke-linecap:round;stroke-linejoin:round;stroke-miterlimit:1.5;fill:#ffffff;stroke-width:1.33866;image-rendering:optimizeQuality;shape-rendering:geometricPrecision;text-rendering:geometricPrecision" /><path
   class="fil4"
   d="m 4100.4588,8614.085 -21.4186,702.7971 141.8981,124.4955 c 508.6912,-214.1871 559.5603,-223.5578 1132.5078,-216.8631 461.8381,5.3546 923.6762,2.6773 1385.5142,2.6773 l -61.5784,-619.8001 c -178.0419,-133.8661 -540.819,-66.933 -720.1996,-473.886 -135.2048,-303.8761 6.6933,-309.2307 9.3706,-313.2467 219.5404,310.5694 45.5145,436.4035 530.1098,579.6403 -352.0679,-524.7552 -447.1128,-665.3133 -661.2986,-1279.7601 -226.2337,278.4429 -216.8631,793.8261 -475.2247,1104.3954 -373.4864,448.4515 -710.8296,195.4459 -1097.7026,472.5488 z"
   id="path829"
   style="fill-rule:evenodd;clip-rule:evenodd;stroke-linecap:round;stroke-linejoin:round;stroke-miterlimit:1.5;fill:#ffffff;stroke-width:1.33866;image-rendering:optimizeQuality;shape-rendering:geometricPrecision;text-rendering:geometricPrecision" /><path
   class="fil4"
   d="m 3874.2251,3244.7154 c 206.1538,-253.007 250.3296,-736.2643 801.858,-1321.2592 485.9345,-514.0459 839.341,-571.6083 1530.0901,-582.3176 52.2078,-291.8281 101.7383,-705.4744 -53.5464,-962.49733 -653.2666,-204.81515 -1329.291,380.17976 -1650.5697,850.04983 -402.937,590.3495 -597.0428,1299.8399 -627.832,2016.0243 z"
   id="path826"
   style="fill-rule:evenodd;clip-rule:evenodd;stroke-linecap:round;stroke-linejoin:round;stroke-miterlimit:1.5;fill:#ffffff;stroke-width:1.33866;image-rendering:optimizeQuality;shape-rendering:geometricPrecision;text-rendering:geometricPrecision" /><path
   class="fil4"
   d="m 4544.8943,7145.5725 c 195.4445,240.959 303.876,448.4514 186.0739,780.4407 -171.3487,489.9486 -453.8062,251.6683 -605.0749,350.7279 l 140.5595,239.6203 c 226.2337,-56.2237 670.6692,-165.9939 795.1652,-398.921 93.7063,-174.0246 123.1568,-864.775 108.4315,-1070.9289 l -571.6088,-41.4985 z"
   id="path823"
   style="fill-rule:evenodd;clip-rule:evenodd;stroke-linecap:round;stroke-linejoin:round;stroke-miterlimit:1.5;fill:#ffffff;stroke-width:1.33866;image-rendering:optimizeQuality;shape-rendering:geometricPrecision;text-rendering:geometricPrecision" /><path
   class="fil4"
   d="m 3926.4328,5469.5688 c -41.4985,121.8195 137.8821,811.2286 246.3137,900.9202 223.5564,-218.2017 202.1378,-1120.4593 -246.3137,-900.9202 z"
   id="path820"
   style="fill-rule:evenodd;clip-rule:evenodd;stroke-linecap:round;stroke-linejoin:round;stroke-miterlimit:1.5;fill:#ffffff;stroke-width:1.33866;image-rendering:optimizeQuality;shape-rendering:geometricPrecision;text-rendering:geometricPrecision" /><path
   class="fil4"
   d="m 3935.8035,8603.3757 c 56.2237,-107.0928 57.5624,-325.2946 44.1758,-477.9033 -16.0639,-196.7832 -38.8212,-235.6044 -226.2337,-254.3456 l 123.1568,-76.3037 17.4026,-242.2977 c -174.026,34.8052 -159.3007,17.4026 -275.7642,149.9301 -52.2078,460.4994 340.0199,281.1188 317.2627,900.9202 z"
   id="path817"
   style="fill-rule:evenodd;clip-rule:evenodd;stroke-linecap:round;stroke-linejoin:round;stroke-miterlimit:1.5;fill:#ffffff;stroke-width:1.33866;image-rendering:optimizeQuality;shape-rendering:geometricPrecision;text-rendering:geometricPrecision" /><path
   class="fil4"
   d="m 4208.8903,7233.9241 c 92.3676,64.2571 623.8161,194.1059 180.7193,791.1487 l -263.7163,13.3866 c 469.8701,524.7565 882.1782,-892.8869 82.997,-804.5353 z"
   id="path814"
   style="fill-rule:evenodd;clip-rule:evenodd;stroke-linecap:round;stroke-linejoin:round;stroke-miterlimit:1.5;fill:#ffffff;stroke-width:1.33866;image-rendering:optimizeQuality;shape-rendering:geometricPrecision;text-rendering:geometricPrecision" /><path
   class="fil4"
   d="m 3680.1192,7077.3007 c 36.1438,236.9431 57.5624,253.007 299.8601,243.6364 l 21.4186,-345.3746 -257.023,13.388 z"
   id="path811"
   style="fill-rule:evenodd;clip-rule:evenodd;stroke-linecap:round;stroke-linejoin:round;stroke-miterlimit:1.5;fill:#ffffff;stroke-width:1.33866;image-rendering:optimizeQuality;shape-rendering:geometricPrecision;text-rendering:geometricPrecision" /><path
   id="path1557"
   style="fill-rule:evenodd;clip-rule:evenodd;stroke-linecap:round;stroke-linejoin:round;stroke-miterlimit:1.5;fill:#ffffff;stroke-width:1.33866;image-rendering:optimizeQuality;shape-rendering:geometricPrecision;text-rendering:geometricPrecision"
   class="fil4"
   d="m 4318.6605,7096.0426 -17.4026,-157.962 -170.0099,-45.5145 -4.016,250.3297 z" /><path
   class="fil4"
   d="m 3875.5637,8742.5952 c -103.0769,156.6233 -58.9011,182.0579 93.7063,259.7002 41.4985,-178.0419 56.2238,-163.3153 -93.7063,-259.7002 z"
   id="path805"
   style="fill-rule:evenodd;clip-rule:evenodd;stroke-linecap:round;stroke-linejoin:round;stroke-miterlimit:1.5;fill:#ffffff;stroke-width:1.33866;image-rendering:optimizeQuality;shape-rendering:geometricPrecision;text-rendering:geometricPrecision" /><path
   class="fil4"
   d="m 3773.8255,9326.2514 c 54.8851,176.7033 -18.7413,135.2048 153.946,161.978 5.3546,-170.01 38.8212,-153.946 -153.946,-161.978 z"
   id="path802"
   style="fill-rule:evenodd;clip-rule:evenodd;stroke-linecap:round;stroke-linejoin:round;stroke-miterlimit:1.5;fill:#ffffff;stroke-width:1.33866;image-rendering:optimizeQuality;shape-rendering:geometricPrecision;text-rendering:geometricPrecision" /><path
   class="fil4"
   d="m 3922.4169,9211.1265 c -16.064,-137.8807 21.4185,-117.8021 -153.9461,-175.3646 12.048,171.35 24.0959,156.6234 153.9461,175.3646 z"
   id="path799"
   style="fill-rule:evenodd;clip-rule:evenodd;stroke-linecap:round;stroke-linejoin:round;stroke-miterlimit:1.5;fill:#ffffff;stroke-width:1.33866;image-rendering:optimizeQuality;shape-rendering:geometricPrecision;text-rendering:geometricPrecision" />
    </g>
    <g
   id="Drills">
        <circle
   cx="4253.2666"
   cy="7665.0308"
   r="266.27515"
   id="circle998"
   style="stroke-width:0.874676" />
    </g>
</svg>
