<?xml version="1.0" encoding="UTF-8" standalone="no"?>
<svg
   width="100%"
   height="100%"
   viewBox="0 0 10000 10000"
   version="1.1"
   xml:space="preserve"
   style="fill-rule:evenodd;clip-rule:evenodd;stroke-linecap:round;stroke-linejoin:round;stroke-miterlimit:1.5;"
   id="svg1001"
   sodipodi:docname="example-gear.svg"
   inkscape:version="1.2.2 (732a01da63, 2022-12-09)"
   xmlns:inkscape="http://www.inkscape.org/namespaces/inkscape"
   xmlns:sodipodi="http://sodipodi.sourceforge.net/DTD/sodipodi-0.dtd"
   xmlns="http://www.w3.org/2000/svg"
   xmlns:svg="http://www.w3.org/2000/svg"><defs
   id="defs1005" /><sodipodi:namedview
   id="namedview1003"
   pagecolor="#505050"
   bordercolor="#eeeeee"
   borderopacity="1"
   inkscape:showpageshadow="0"
   inkscape:pageopacity="0"
   inkscape:pagecheckerboard="0"
   inkscape:deskcolor="#505050"
   showgrid="false"
   inkscape:zoom="0.0625"
   inkscape:cx="5528"
   inkscape:cy="8272"
   inkscape:window-width="1708"
   inkscape:window-height="894"
   inkscape:window-x="2391"
   inkscape:window-y="190"
   inkscape:window-maximized="1"
   inkscape:current-layer="svg1001" />
    <g
   id="Edge.Cuts">
        <path
   id="path738"
   style="fill-rule:evenodd;clip-rule:evenodd;stroke-linecap:round;stroke-linejoin:round;stroke-miterlimit:1.5;display:inline;fill:#ff0000;stroke-width:1.33866;image-rendering:optimizeQuality;shape-rendering:geometricPrecision;text-rendering:geometricPrecision"
   d="m 5951.7602,162.64402 c -155.9818,0.35742 -311.4708,29.32069 -463.5413,82.89258 -486.6253,171.43297 -938.7801,592.64004 -1269.3112,1130.0884 l -0.013,0.013 -0.013,0.013 c -37.2453,60.9184 -124.5782,135.1847 -239.9472,227.4265 -115.3691,92.2404 -258.71,203.2355 -408.645,341.8365 -299.8697,277.2033 -626.2638,665.1526 -809.196,1235.4705 v -0.027 c -43.9539,136.19 -82.6028,218.0171 -117.8844,270.1579 -35.2816,52.1409 -66.6601,74.8124 -99.656,94.6273 -32.9961,19.8135 -68.435,36.6137 -106.1933,74.5259 -37.7583,37.9109 -77.3402,96.3515 -121.599,199.3976 -76.4146,177.4008 -92.2918,414.1591 -49.7345,648.3926 42.5582,234.2403 143.7358,466.1112 304.0622,632.5523 119.7295,124.3348 153.8923,243.2789 215.3228,405.5835 61.4309,162.3047 149.7488,366.0864 376.8384,653.6442 71.0232,90.1414 194.0522,199.5047 310.0459,301.773 111.2536,98.0891 216.2628,190.4099 259.7563,247.3565 -263.7712,400.0924 -398.3303,701.247 -451.9816,939.4992 -54.0097,239.8439 -25.5979,416.254 34.7549,562.8495 60.3526,146.5954 151.8254,263.3776 223.377,386.5143 71.5516,123.1368 123.6003,251.8611 108.4885,425.3195 -17.8081,201.613 -10.1636,327.0376 12.4774,409.5218 22.6417,82.487 61.867,122.098 102.2936,146.8806 40.4268,24.784 79.9067,36.1733 108.9682,65.2732 29.0618,29.0998 51.0141,77.0627 53.3157,180.3016 l 0.2926,13.088 h 3049.0545 l -93.3395,-1081.4053 c 106.5092,27.0048 142.637,48.576 189.1341,64.7845 49.1583,17.1362 107.9148,26.6795 267.0589,27.3516 333.4417,2.0173 516.1623,-78.0038 637.2683,-226.8215 121.1087,-148.8203 180.7514,-362.7879 277.6276,-629.3662 128.4057,-354.7679 346.2032,-434.3487 538.7723,-565.2617 96.2846,-65.4579 185.8878,-143.9275 250.5331,-274.6464 64.6453,-130.7176 104.3821,-312.9268 104.3821,-586.3069 v -12.2916 l -12.246,-1.0454 c -255.5759,-21.8336 -221.1884,-34.7504 -453.604,83.1911 49.7674,-195.3362 145.5593,-456.4152 155.6033,-679.1778 5.2676,-116.8196 -13.1952,-224.0732 -76.6866,-304.8266 -63.4913,-80.752 -171.1318,-132.8621 -337.8874,-142.0319 l -4.8808,-0.2704 -3.9049,2.9423 c -52.2975,39.3781 -98.2376,83.4374 -140.3907,128.4031 -42.1545,44.9656 -80.5245,90.8348 -117.6817,133.83 1.3306,-140.5929 8.7816,-280.8083 -12.8445,-407.8995 -22.8817,-134.4739 -79.9502,-254.7619 -211.0011,-340.791 43.4985,-86.3102 96.8642,-275.8365 140.5822,-468.0682 22.8134,-100.3126 42.6926,-200.8568 56.3081,-286.5873 13.6168,-85.7319 21.12,-156.0665 18.6301,-198.743 l -0.3668,-6.3065 -218.6007,-159.5911 c -16.6114,-155.1187 -56.8596,-329.0697 -59.4526,-457.4072 v -0.04 -0.04 c -3.3078,-125.6775 15.8498,-182.505 30.7477,-243.4489 14.894,-60.9319 24.8402,-125.3295 1.1874,-256.4835 l -0.013,-0.067 C 7819.8794,2501.66 7803.2224,2139.8399 7696.7253,1778.7936 7590.2227,1417.7286 7393.5038,1058.464 6957.2983,618.23058 6640.4854,299.56496 6294.9319,161.89705 5951.7721,162.68016 Z" />
    </g>
    <g
   id="F.Cu">
        <path
   style="fill-rule:evenodd;clip-rule:evenodd;stroke-linecap:round;stroke-linejoin:round;stroke-miterlimit:1.5;fill:#800000;stroke-width:1.33866;image-rendering:optimizeQuality;shape-rendering:geometricPrecision;text-rendering:geometricPrecision"
   d="m 5956.0879,6935.8086 -127.9824,21.0332 7.2578,163.2988 c 214.1846,614.4419 309.2333,755.0076 661.2988,1279.7598 -484.5923,-143.2362 -310.5702,-269.073 -530.1094,-579.6406 -2.6773,4.016 -144.5747,9.3718 -9.3711,313.2461 179.38,406.9506 542.158,340.0211 720.1993,473.8867 l 61.58,619.8008 65.5606,583.3652 h 0.098 v 13.6777 H 6958.5 l -88.1738,-1021.5625 -0.6426,0.1543 -21.1836,-271.7754 c -18.4285,-15.9091 -37.8163,-33.6319 -58.6719,-53.5097 87.0124,-13.3866 65.5956,17.402 175.3653,-60.2403 -174.0254,-140.5583 -898.2413,-410.975 -1002.6563,-1377.4824 -3.536,-34.967 -5.1816,-69.5671 -6.4492,-104.0117 z"
   id="path370" /><path
   style="fill-rule:evenodd;clip-rule:evenodd;stroke-linecap:round;stroke-linejoin:round;stroke-miterlimit:1.5;fill:#800000;stroke-width:1.33866;image-rendering:optimizeQuality;shape-rendering:geometricPrecision;text-rendering:geometricPrecision"
   d="m 4090.3887,1527.0469 c -314.73,270.0824 -1012.1798,708.5324 -1316.543,1657.4297 -176.702,547.5089 -270.41,231.5896 -445.7734,639.8789 -149.9295,348.0495 -64.2538,938.4048 251.6679,1266.375 243.6351,253.0051 140.5609,487.2753 593.0254,1060.2187 139.2201,176.702 491.2899,437.7432 575.625,556.8828 -904.6904,1367.8196 -294.3824,1572.9275 -125.4179,2034.6172 l 109.3125,-67.3144 C 3416.9325,8144.6066 3265.2693,7610.3066 3680.1191,7077.3027 l 64.2559,-88.3515 c 63.021,-159.4824 76.2806,-172.9851 222.9883,-189.2461 l -13.4414,-172.461 c -498.735,-271.3738 -895.8004,-718.7254 -1052.9043,-1288.8613 1248.9631,341.3568 1155.2575,-1720.1816 -44.1758,-1887.5137 65.9293,-508.975 732.7567,-1470.8948 1180.0508,-1669.8203 z m -1185.668,2056.2363 c 8.9628,-0.037 17.9389,0.1681 26.9199,0.6152 191.5947,9.538 385.0336,128.6812 482.086,330.1485 638.5372,685.3903 -34.8097,1886.1695 -653.2676,1136.5234 -322.6155,-238.2798 -443.0949,-760.3619 -299.8594,-1139.2012 85.4855,-225.8347 261.8775,-327.3259 444.1211,-328.0859 z"
   id="path368" /><path
   style="fill-rule:evenodd;clip-rule:evenodd;stroke-linecap:round;stroke-linejoin:round;stroke-miterlimit:1.5;fill:#800000;stroke-width:1.33866;image-rendering:optimizeQuality;shape-rendering:geometricPrecision;text-rendering:geometricPrecision"
   d="m 5951.7871,175.76953 c -648.3365,1.90112 -1289.2607,504.07604 -1721.4785,1206.86917 -23.1207,37.8157 -66.4791,80.5074 -118.6445,126.5566 l -55.2286,262.2383 c 0.3838,-0.1539 0.8022,-0.4313 1.1856,-0.584 -1.7728,6.7365 -3.236,12.0203 -5.0059,18.7188 l -2.8164,13.375 -0.7402,-0.068 c -223.875,845.0644 -421.3257,1394.4332 -236.4121,2344.0977 236.9413,-677.3589 180.7223,-1029.4335 619.8008,-1712.1465 253.5071,-396.5761 781.1581,-949.6391 1329.2441,-977.5137 36.5393,-1.8583 73.1706,-1.3831 109.8164,1.6289 485.931,41.4985 1091.0102,720.2036 1295.8242,1120.4609 465.8517,908.9455 215.5254,1115.106 476.5625,1319.92 112.4469,88.3511 228.9124,144.5749 327.9727,259.6992 l -151.2695,756.3437 c -831.3038,476.561 -203.4782,-175.3599 -686.7325,744.295 -650.5852,6.6927 -527.4354,199.462 -949.1113,556.8828 -669.3264,-61.5785 -372.1472,325.2958 -370.8086,576.9629 C 5197.434,7010.4004 4523.9847,6931.277 3972.166,6637.334 l 18.1758,233.1972 11.0566,105.0333 -21.4199,345.375 -85.6738,231.5878 -17.4024,242.2989 -123.1562,76.3027 c 187.4114,18.7413 210.1685,57.5637 226.2324,254.3457 13.3866,152.6068 12.0479,370.8101 -44.1758,477.9024 l -184.7343,103.0761 c -0.034,-0.056 -0.068,-0.1119 -0.1016,-0.1679 l -116.1133,71.5019 c 22.4347,73.3014 33.235,153.5356 25.1856,245.9297 -70.9491,803.1919 267.7329,380.1823 277.1035,800.5195 h 131.2773 v -12.0488 h -0.09 l 10.7109,-495.3047 21.418,-702.7969 25.4336,-337.3418 c 151.2675,-99.0603 433.7282,139.2166 605.0762,-350.7304 117.801,-331.9862 9.369,-539.4817 -186.0743,-780.4395 l -226.2343,-49.5293 -191.4278,46.8516 4.0156,-250.3281 170.0098,45.5136 297.1836,66.9336 571.6074,41.4981 611.9532,-99.7071 -0.01,-0.023 173.4629,-28.5078 c -2.6061,-76.9446 -4.3309,-153.1661 -21.0332,-230.5234 -45.5138,-214.1846 -111.1069,-149.9316 -29.4492,-331.9883 465.8511,-164.6547 746.9715,510.0332 433.7266,828.6328 349.3882,-41.4985 730.9095,152.608 1026.7519,319.9394 -135.2036,-222.2159 -378.8427,-262.3777 -579.6406,-370.8086 378.8387,-456.4805 50.8695,-133.8721 207.4922,-934.3867 -144.5748,136.5428 -254.345,279.7804 -457.8203,318.6016 l -210.1699,-226.2324 c 500.6563,-724.2115 922.3373,-597.0412 1066.9121,-65.5957 69.6098,254.3438 -22.7562,148.5932 132.5273,198.123 93.7057,-345.3722 -36.1404,-1049.5132 330.6504,-1242.2793 389.548,309.229 -60.2386,1132.5109 95.0449,1439.0625 187.4114,-144.5742 246.3144,-1029.4301 617.1211,-915.6445 398.9187,353.4041 -342.6954,1145.8953 -239.6191,1384.1758 182.0567,62.9164 306.5547,-384.1972 697.4414,-377.5039 30.7886,436.4005 -550.1897,672.0099 -816.5821,1010.6894 -133.8649,170.0088 -202.1394,432.3885 -323.957,572.9473 -228.9099,265.0531 -534.1272,92.3693 -718.8613,212.8476 l 131.1894,82.9961 515.3848,-61.5781 c -143.2361,168.6701 -318.603,186.0752 -542.1582,160.6406 -197.0596,-24.6322 -280.8355,-42.7719 -403.2227,-143.5879 l 15.2891,196.1621 c 222.8308,56.3005 144.2325,90.695 453.5274,92 662.6331,4.0159 708.1531,-313.2502 902.2578,-847.373 259.6984,-717.5182 892.8886,-333.3332 892.8886,-1421.6582 -266.3918,-22.7572 -207.4957,-38.8207 -472.5488,95.0449 l -12.0469,42.8379 -34.8066,-26.7734 46.8535,-16.0645 c 95.0443,-398.9187 417.6594,-1101.7174 -239.6191,-1137.8613 -113.7856,85.6738 -198.1235,195.4455 -279.7813,287.8125 0,-306.5516 42.8356,-611.7688 -227.5722,-780.4395 84.3351,-152.6061 228.9116,-796.5044 219.541,-957.1425 l -218.2012,-159.3008 c -16.0639,-155.2841 -57.5628,-331.9889 -60.2402,-464.5157 -6.6933,-254.3439 78.98,-238.2833 32.1269,-497.9824 C 7728.2313,2054.6512 7817.9153,1505.7892 6947.791,627.63281 6633.0401,311.04136 6291.3923,174.7737 5951.7871,175.76953 Z m -71.2363,160.81836 c 8.9184,0.0433 17.843,0.20993 26.7715,0.50391 81.6316,2.68773 163.6464,15.94901 245.3047,41.55078 155.2835,257.02139 105.7546,670.67162 53.5468,962.49802 -690.745,10.7093 -1044.1588,68.2735 -1530.0898,582.3164 -551.5254,584.9913 -595.7068,1068.254 -801.8594,1321.2598 30.7892,-716.1796 224.8973,-1425.6794 627.832,-2016.0254 276.725,-404.70983 816.6365,-894.83219 1378.4942,-892.10351 z m 436.7304,98.27734 C 7204.8088,540.61886 7741.6177,2130.9555 7722.877,2939.502 c -37.4825,-46.8531 -235.6078,-514.0501 -536.8047,-943.7579 -192.7661,-277.1011 -506.015,-497.9822 -860.7578,-594.3652 45.5139,-364.1134 68.2704,-603.73865 -8.0333,-966.51367 z m 337.5293,1297.65237 c 594.6819,411.7053 892.7166,950.2626 1045.3086,1682.209 92.367,441.7552 8.0311,318.6017 -40.1601,366.7929 -101.7376,-503.3336 -129.8528,-835.3272 -398.9219,-1295.8242 -106.6437,-184.2026 -387.2434,-569.2841 -606.2266,-753.1777 z m 815.0586,3850.8398 -48.1914,319.9395 c -91.0283,-69.6104 -164.6539,-76.3044 48.1914,-319.9395 z m -663.9765,989.2696 c 74.9644,232.9253 80.3178,444.4366 -203.4766,445.7753 l -26.7734,-356.0839 z m -2525.5938,657.3242 c 701.942,2.3302 300.7774,1316.8633 -154.4062,808.5097 l 263.7168,-13.3867 c 443.0939,-597.0393 -88.3518,-726.8933 -180.7188,-791.1484 24.9744,-2.761 48.7653,-4.0498 71.4082,-3.9746 z m 8.7559,183.5488 c 2.2639,0.02 4.5204,0.106 6.7656,0.2598 86.2176,5.9063 157.3748,111.3266 115.207,382.4043 -108.4304,104.4149 -76.3025,107.0934 -216.8613,111.1093 -224.0154,-233.0743 -47.7396,-495.0337 94.8887,-493.7734 z m -413.4902,1329.0977 c 149.9289,96.383 135.2035,81.6585 93.705,259.6992 -152.6062,-77.6417 -196.7813,-103.077 -93.705,-259.6992 z m -107.0938,293.166 c 175.3634,57.5619 137.8813,37.4837 153.9453,175.3652 -129.8496,-18.7413 -141.8973,-4.0177 -153.9453,-175.3652 z m 5.3555,290.4902 c 192.766,8.032 159.2999,-8.0302 153.9453,161.9785 -172.6861,-26.7732 -99.0608,14.7236 -153.9453,-161.9785 z"
   id="path268" /><path
   class="fil3"
   d="m 4966.5726,5334.3661 c -566.2537,-210.1698 -465.8541,-904.935 -135.2048,-1321.2586 291.8282,-366.7932 1086.9929,-639.88 1504.6552,-282.4575 566.2537,267.7322 346.7133,969.1907 36.1439,1352.0478 -269.0709,331.988 -1054.8651,590.3496 -1405.5943,251.6683 z m 597.0429,-1874.1257 c -1524.7351,273.0869 -1472.5273,2444.3954 139.2208,2137.842 1475.2046,-281.1189 1480.5592,-2426.9928 -139.2208,-2137.842 z"
   id="path766"
   style="fill-rule:evenodd;clip-rule:evenodd;stroke-linecap:round;stroke-linejoin:round;stroke-miterlimit:1.5;fill:#800000;stroke-width:1.33866;image-rendering:optimizeQuality;shape-rendering:geometricPrecision;text-rendering:geometricPrecision" /><path
   class="fil3"
   d="m 4172.7465,6370.4899 c -108.4316,-89.6903 -287.8122,-779.1008 -246.3137,-900.919 448.4515,-219.5404 469.8701,682.7172 246.3137,900.919 z m 219.5404,-278.4415 c 28.1119,-428.3716 -127.1728,-338.6813 60.2398,-457.8222 -156.6234,-141.8981 -208.8312,-242.2976 -431.0489,-323.956 l -202.1379,145.9141 c 92.3677,270.4096 82.997,829.9699 301.1988,1025.4145 211.5085,-53.5465 257.023,-165.994 271.7482,-389.5504 z"
   id="path763"
   style="fill-rule:evenodd;clip-rule:evenodd;stroke-linecap:round;stroke-linejoin:round;stroke-miterlimit:1.5;fill:#800000;stroke-width:1.33866;image-rendering:optimizeQuality;shape-rendering:geometricPrecision;text-rendering:geometricPrecision" /><path
   class="fil3"
   d="m 7720.1987,4816.3042 c 91.0289,-132.5274 204.8151,-452.4674 172.6873,-635.864 l -164.6554,-8.032 z"
   id="path760"
   style="fill-rule:evenodd;clip-rule:evenodd;stroke-linecap:round;stroke-linejoin:round;stroke-miterlimit:1.5;fill:#800000;stroke-width:1.33866;image-rendering:optimizeQuality;shape-rendering:geometricPrecision;text-rendering:geometricPrecision" /><path
   class="fil0"
   d="m 4449.8494,6482.9374 c -58.9011,66.9331 -46.8532,72.2877 -131.1888,121.8182 l -184.7353,123.1568 262.3776,-42.8371 z"
   id="path757"
   style="fill-rule:evenodd;clip-rule:evenodd;stroke-linecap:round;stroke-linejoin:round;stroke-miterlimit:1.5;display:inline;fill:#800000;stroke-width:1.33866;image-rendering:optimizeQuality;shape-rendering:geometricPrecision;text-rendering:geometricPrecision" /><path
   class="fil0"
   d="m 3997.3819,6513.7266 c 89.6903,88.3517 -121.8182,21.4186 100.3996,92.3677 z"
   id="path754"
   style="fill-rule:evenodd;clip-rule:evenodd;stroke-linecap:round;stroke-linejoin:round;stroke-miterlimit:1.5;display:inline;fill:#800000;stroke-width:1.33866;image-rendering:optimizeQuality;shape-rendering:geometricPrecision;text-rendering:geometricPrecision" />
    </g>
    <g
   id="F.Mask"
   transform="matrix(1.1440129,0,0,0.99985729,-792.70399,-23.499526)">
        <path
   id="path846"
   class="fil1"
   d="m 5753.3342,3566.2175 c -360.5762,24.9808 -739.602,217.6396 -921.9944,446.8839 -330.6492,416.3235 -431.0117,1111.1167 135.2415,1321.2851 350.7284,338.6814 1136.541,80.3212 1405.6118,-251.6654 310.5696,-382.8585 530.0737,-1084.337 -36.1799,-1352.0693 -156.6234,-134.0333 -366.3339,-179.4232 -582.679,-164.4343 z"
   style="fill-rule:evenodd;clip-rule:evenodd;stroke-linecap:round;stroke-linejoin:round;stroke-miterlimit:1.5;fill:#ffff9e;stroke-width:1.33867;image-rendering:optimizeQuality;shape-rendering:geometricPrecision;text-rendering:geometricPrecision"
   transform="matrix(0.87411602,0,0,1.0001427,692.91525,23.50288)" /><path
   id="path843"
   class="fil1"
   d="m 2931.6638,3583.9265 c -191.5956,-9.5312 -381.4067,90.4721 -471.0969,327.4165 -143.2366,378.8409 -22.7339,900.9284 299.8834,1139.2087 618.4608,749.6514 1291.7814,-451.1168 653.2406,-1136.5113 -97.053,-201.4684 -290.4313,-320.5771 -482.0271,-330.1139 z"
   style="fill-rule:evenodd;clip-rule:evenodd;stroke-linecap:round;stroke-linejoin:round;stroke-miterlimit:1.5;fill:#ffff9e;stroke-width:1.33867;image-rendering:optimizeQuality;shape-rendering:geometricPrecision;text-rendering:geometricPrecision"
   transform="matrix(0.87411602,0,0,1.0001427,692.91525,23.50288)" />
    </g>
    <g
   id="F.SilkS">
        <path
   class="fil4"
   d="m 4396.3029,6685.073 -262.3776,42.8372 184.7352,-123.1555 c 84.3357,-49.5304 72.2877,-54.8864 131.1888,-121.8195 z m -398.921,-171.3472 100.3996,92.3676 c -222.2178,-70.9504 -10.7093,-4.016 -100.3996,-92.3676 z M 3819.34,5456.1822 4021.4778,5310.2681 c 222.2177,81.6597 274.4255,182.0592 431.0489,323.9573 -187.4126,119.1395 -32.1279,29.4506 -60.2398,457.8208 -14.7253,223.5577 -60.2397,336.0053 -271.7482,389.5504 C 3902.3369,6286.1534 3911.7076,5726.593 3819.34,5456.1822 Z M 5563.6159,3460.2398 C 7183.3958,3171.089 7178.0412,5316.9627 5702.8367,5598.0802 4091.0882,5904.6336 4038.8804,3733.3253 5563.6159,3460.2398 Z m 2164.615,712.1664 164.6553,8.0319 c 32.1279,183.3979 -81.6583,503.3379 -172.6873,635.8641 z m -3915.5843,-25.4346 c -187.4125,-962.4973 17.4026,-1511.347 244.975,-2376.1228 -447.1128,178.0419 -1133.8459,1163.2958 -1200.779,1680.0204 1199.4404,167.3326 1293.1466,2228.8707 44.1758,1887.5121 331.988,1204.7937 1729.5502,1871.4469 2912.9271,1455.1233 -1.3386,-251.6683 -298.5214,-638.5413 370.8092,-576.9616 421.6782,-357.4225 298.5214,-550.1911 949.1107,-556.883 483.2566,-919.6602 -144.5754,-267.7322 686.7331,-744.2956 l 151.2687,-756.3448 c -99.0609,-115.1236 -215.5244,-171.3487 -327.9719,-259.699 -261.039,-204.8151 -10.7093,-410.9689 -476.5634,-1319.9205 -204.8151,-400.2596 -809.89,-1078.9608 -1295.8239,-1120.4593 -586.3336,-48.1918 -1168.6517,552.867 -1439.0613,975.8839 -439.0808,682.7165 -382.857,1034.7844 -619.8001,1712.1469 z"
   id="path835"
   style="fill-rule:evenodd;clip-rule:evenodd;stroke-linecap:round;stroke-linejoin:round;stroke-miterlimit:1.5;fill:#ffffff;stroke-width:1.33866;image-rendering:optimizeQuality;shape-rendering:geometricPrecision;text-rendering:geometricPrecision" /><path
   class="fil4"
   d="m 7270.4088,8690.3874 26.7732,-99.0609 -131.1888,-82.997 c 184.7353,-120.4782 489.95,52.2077 718.861,-212.8458 121.8182,-140.5608 190.0899,-402.937 323.956,-572.9483 266.3936,-338.6799 847.3725,-574.2843 816.5833,-1010.6891 -390.889,-6.6933 -515.3845,440.4195 -697.4424,377.5037 -103.0769,-238.283 638.5413,-1030.7703 239.6203,-1384.1755 -370.8091,-113.7862 -429.7102,771.0674 -617.1228,915.6442 -155.2846,-306.5548 294.5055,-1129.83 -95.0449,-1439.0607 -366.7931,192.7672 -236.943,896.9029 -330.6493,1242.2761 -155.2847,-49.5304 -62.9171,56.2251 -132.5274,-198.1218 -144.5754,-531.4485 -566.2537,-658.6199 -1066.9129,65.5957 l 210.1698,226.2324 c 203.4764,-38.8198 313.2467,-182.0579 457.8221,-318.6 -156.6234,800.518 171.3486,477.9007 -207.4925,934.3841 200.7992,108.4329 444.4355,148.5927 579.6402,370.8091 -295.8441,-167.3326 -677.3625,-361.4385 -1026.753,-319.94 313.2467,-318.6013 32.1278,-993.2852 -433.7262,-828.6312 -81.6583,182.0593 -16.064,117.8022 29.4505,331.9893 25.4346,117.8022 16.064,232.9257 28.1119,352.0679 104.4156,966.512 828.6312,1236.9215 1002.6572,1377.4809 -109.7702,77.6437 -88.3517,46.8531 -175.3646,60.2398 171.3486,163.3166 244.975,183.3965 480.5793,212.8471 z"
   id="path832"
   style="fill-rule:evenodd;clip-rule:evenodd;stroke-linecap:round;stroke-linejoin:round;stroke-miterlimit:1.5;fill:#ffffff;stroke-width:1.33866;image-rendering:optimizeQuality;shape-rendering:geometricPrecision;text-rendering:geometricPrecision" /><path
   class="fil4"
   d="m 4100.4588,8614.085 -21.4186,702.7971 141.8981,124.4955 c 508.6912,-214.1871 559.5603,-223.5578 1132.5078,-216.8631 461.8381,5.3546 923.6762,2.6773 1385.5142,2.6773 l -61.5784,-619.8001 c -178.0419,-133.8661 -540.819,-66.933 -720.1996,-473.886 -135.2048,-303.8761 6.6933,-309.2307 9.3706,-313.2467 219.5404,310.5694 45.5145,436.4035 530.1098,579.6403 -352.0679,-524.7552 -447.1128,-665.3133 -661.2986,-1279.7601 -226.2337,278.4429 -216.8631,793.8261 -475.2247,1104.3954 -373.4864,448.4515 -710.8296,195.4459 -1097.7026,472.5488 z"
   id="path829"
   style="fill-rule:evenodd;clip-rule:evenodd;stroke-linecap:round;stroke-linejoin:round;stroke-miterlimit:1.5;fill:#ffffff;stroke-width:1.33866;image-rendering:optimizeQuality;shape-rendering:geometricPrecision;text-rendering:geometricPrecision" /><path
   class="fil4"
   d="m 3874.2251,3244.7154 c 206.1538,-253.007 250.3296,-736.2643 801.858,-1321.2592 485.9345,-514.0459 839.341,-571.6083 1530.0901,-582.3176 52.2078,-291.8281 101.7383,-705.4744 -53.5464,-962.49733 -653.2666,-204.81515 -1329.291,380.17976 -1650.5697,850.04983 -402.937,590.3495 -597.0428,1299.8399 -627.832,2016.0243 z"
   id="path826"
   style="fill-rule:evenodd;clip-rule:evenodd;stroke-linecap:round;stroke-linejoin:round;stroke-miterlimit:1.5;fill:#ffffff;stroke-width:1.33866;image-rendering:optimizeQuality;shape-rendering:geometricPrecision;text-rendering:geometricPrecision" /><path
   class="fil4"
   d="m 4544.8943,7145.5725 c 195.4445,240.959 303.876,448.4514 186.0739,780.4407 -171.3487,489.9486 -453.8062,251.6683 -605.0749,350.7279 l 140.5595,239.6203 c 226.2337,-56.2237 670.6692,-165.9939 795.1652,-398.921 93.7063,-174.0246 123.1568,-864.775 108.4315,-1070.9289 l -571.6088,-41.4985 z"
   id="path823"
   style="fill-rule:evenodd;clip-rule:evenodd;stroke-linecap:round;stroke-linejoin:round;stroke-miterlimit:1.5;fill:#ffffff;stroke-width:1.33866;image-rendering:optimizeQuality;shape-rendering:geometricPrecision;text-rendering:geometricPrecision" /><path
   class="fil4"
   d="m 3926.4328,5469.5688 c -41.4985,121.8195 137.8821,811.2286 246.3137,900.9202 223.5564,-218.2017 202.1378,-1120.4593 -246.3137,-900.9202 z"
   id="path820"
   style="fill-rule:evenodd;clip-rule:evenodd;stroke-linecap:round;stroke-linejoin:round;stroke-miterlimit:1.5;fill:#ffffff;stroke-width:1.33866;image-rendering:optimizeQuality;shape-rendering:geometricPrecision;text-rendering:geometricPrecision" /><path
   class="fil4"
   d="m 3935.8035,8603.3757 c 56.2237,-107.0928 57.5624,-325.2946 44.1758,-477.9033 -16.0639,-196.7832 -38.8212,-235.6044 -226.2337,-254.3456 l 123.1568,-76.3037 17.4026,-242.2977 c -174.026,34.8052 -159.3007,17.4026 -275.7642,149.9301 -52.2078,460.4994 340.0199,281.1188 317.2627,900.9202 z"
   id="path817"
   style="fill-rule:evenodd;clip-rule:evenodd;stroke-linecap:round;stroke-linejoin:round;stroke-miterlimit:1.5;fill:#ffffff;stroke-width:1.33866;image-rendering:optimizeQuality;shape-rendering:geometricPrecision;text-rendering:geometricPrecision" /><path
   class="fil4"
   d="m 4208.8903,7233.9241 c 92.3676,64.2571 623.8161,194.1059 180.7193,791.1487 l -263.7163,13.3866 c 469.8701,524.7565 882.1782,-892.8869 82.997,-804.5353 z"
   id="path814"
   style="fill-rule:evenodd;clip-rule:evenodd;stroke-linecap:round;stroke-linejoin:round;stroke-miterlimit:1.5;fill:#ffffff;stroke-width:1.33866;image-rendering:optimizeQuality;shape-rendering:geometricPrecision;text-rendering:geometricPrecision" /><path
   class="fil4"
   d="m 3680.1192,7077.3007 c 36.1438,236.9431 57.5624,253.007 299.8601,243.6364 l 21.4186,-345.3746 -257.023,13.388 z"
   id="path811"
   style="fill-rule:evenodd;clip-rule:evenodd;stroke-linecap:round;stroke-linejoin:round;stroke-miterlimit:1.5;fill:#ffffff;stroke-width:1.33866;image-rendering:optimizeQuality;shape-rendering:geometricPrecision;text-rendering:geometricPrecision" /><path
   id="path1557"
   style="fill-rule:evenodd;clip-rule:evenodd;stroke-linecap:round;stroke-linejoin:round;stroke-miterlimit:1.5;fill:#ffffff;stroke-width:1.33866;image-rendering:optimizeQuality;shape-rendering:geometricPrecision;text-rendering:geometricPrecision"
   class="fil4"
   d="m 4318.6605,7096.0426 -17.4026,-157.962 -170.0099,-45.5145 -4.016,250.3297 z" /><path
   class="fil4"
   d="m 3875.5637,8742.5952 c -103.0769,156.6233 -58.9011,182.0579 93.7063,259.7002 41.4985,-178.0419 56.2238,-163.3153 -93.7063,-259.7002 z"
   id="path805"
   style="fill-rule:evenodd;clip-rule:evenodd;stroke-linecap:round;stroke-linejoin:round;stroke-miterlimit:1.5;fill:#ffffff;stroke-width:1.33866;image-rendering:optimizeQuality;shape-rendering:geometricPrecision;text-rendering:geometricPrecision" /><path
   class="fil4"
   d="m 3773.8255,9326.2514 c 54.8851,176.7033 -18.7413,135.2048 153.946,161.978 5.3546,-170.01 38.8212,-153.946 -153.946,-161.978 z"
   id="path802"
   style="fill-rule:evenodd;clip-rule:evenodd;stroke-linecap:round;stroke-linejoin:round;stroke-miterlimit:1.5;fill:#ffffff;stroke-width:1.33866;image-rendering:optimizeQuality;shape-rendering:geometricPrecision;text-rendering:geometricPrecision" /><path
   class="fil4"
   d="m 3922.4169,9211.1265 c -16.064,-137.8807 21.4185,-117.8021 -153.9461,-175.3646 12.048,171.35 24.0959,156.6234 153.9461,175.3646 z"
   id="path799"
   style="fill-rule:evenodd;clip-rule:evenodd;stroke-linecap:round;stroke-linejoin:round;stroke-miterlimit:1.5;fill:#ffffff;stroke-width:1.33866;image-rendering:optimizeQuality;shape-rendering:geometricPrecision;text-rendering:geometricPrecision" />
    </g>
    <g
   id="Drills">
        <circle
   cx="4253.2666"
   cy="7665.0308"
   r="266.27515"
   id="circle998"
   style="stroke-width:0.874676" />
    </g>
</svg>
